<?xml version="1.0" encoding="UTF-8" standalone="no"?>
<svg
   xmlns:dc="http://purl.org/dc/elements/1.1/"
   xmlns:cc="http://creativecommons.org/ns#"
   xmlns:rdf="http://www.w3.org/1999/02/22-rdf-syntax-ns#"
   xmlns:svg="http://www.w3.org/2000/svg"
   xmlns="http://www.w3.org/2000/svg"
   xmlns:sodipodi="http://sodipodi.sourceforge.net/DTD/sodipodi-0.dtd"
   xmlns:inkscape="http://www.inkscape.org/namespaces/inkscape"
   width="71.815475mm"
   height="71.815475mm"
   viewBox="0 0 71.815475 71.815475"
   version="1.1"
   id="svg8"
   inkscape:version="1.0.1 (3bc2e813f5, 2020-09-07)"
   sodipodi:docname="p1.svg">
  <defs
     id="defs2" />
  <sodipodi:namedview
     id="base"
     pagecolor="#ffffff"
     bordercolor="#666666"
     borderopacity="1.0"
     inkscape:pageopacity="0.0"
     inkscape:pageshadow="2"
     inkscape:zoom="0.7"
     inkscape:cx="210.67161"
     inkscape:cy="79.387891"
     inkscape:document-units="mm"
     inkscape:current-layer="layer1"
     inkscape:document-rotation="0"
     showgrid="false"
     inkscape:window-width="1346"
     inkscape:window-height="1040"
     inkscape:window-x="1946"
     inkscape:window-y="0"
     inkscape:window-maximized="0" />
  <metadata
     id="metadata5">
    <rdf:RDF>
      <cc:Work
         rdf:about="">
        <dc:format>image/svg+xml</dc:format>
        <dc:type
           rdf:resource="http://purl.org/dc/dcmitype/StillImage" />
        <dc:title />
      </cc:Work>
    </rdf:RDF>
  </metadata>
  <g
     inkscape:label="Layer 1"
     inkscape:groupmode="layer"
     id="layer1"
     transform="translate(-51.782739,-86.556537)">
    <g
       id="g1043"
       transform="matrix(0.26598324,0,0,-0.26598324,2.4917359,307.32252)">
      <g
         id="g642"
         transform="translate(326.2681,644.9429)">
        <path
           d="m 0,0 c 1.609,0.684 3.463,-0.063 4.151,-1.668 0.683,-1.609 -0.068,-3.467 -1.672,-4.151 -2.305,-0.98 -4.705,-1.447 -7.065,-1.447 -7.04,0 -13.749,4.131 -16.675,11.006 -0.688,1.609 0.063,3.467 1.668,4.151 1.609,0.684 3.468,-0.063 4.151,-1.672 C -12.9,0.249 -5.974,-2.542 0,0 m -27.721,29.586 c -0.616,-0.616 -1.427,-0.924 -2.237,-0.924 -0.807,0 -1.617,0.308 -2.234,0.924 -2.273,2.274 -5.966,2.274 -8.239,0 -1.233,-1.233 -3.237,-1.233 -4.471,0 -1.237,1.238 -1.237,3.239 0,4.476 4.736,4.736 12.445,4.736 17.181,0 1.238,-1.237 1.238,-3.238 0,-4.476 m 52.595,9.504 c 3.285,0 5.946,-2.664 5.946,-5.949 0,-3.286 -2.661,-5.95 -5.946,-5.95 -3.285,0 -5.95,2.664 -5.95,5.95 0,3.285 2.665,5.949 5.95,5.949 M -32.374,69.404 C -38.11,58.544 -47.242,52.211 -60.122,50.144 V 27.749 c 0,-12.493 10.2,-28.717 29.503,-46.915 13.849,-13.053 35.545,-13.053 49.393,0 19.3,18.198 29.504,34.422 29.504,46.915 v 13.709 c -20.7,-0.245 -39.695,3.721 -56.505,11.813 -11.311,5.439 -19.28,11.662 -24.147,16.133"
           style="fill:#e1e1e1;fill-opacity:1;fill-rule:nonzero;stroke:none"
           id="path644" />
      </g>
      <g
         id="g646"
         transform="translate(289.625,720.064)">
        <path
           d="m 0,0 -7.357,37.358 c -8.342,-0.881 -15.841,-5.562 -19.941,-12.61 -0.407,-0.7 -0.803,-1.42 -1.17,-2.139 -6.084,-11.837 -6.234,-24.681 -5.226,-46.835 1.229,0.541 2.53,0.945 3.89,1.19 v 0.822 c 0,1.613 1.213,2.969 2.819,3.143 C -13.627,-17.612 -5.029,-11.544 0,0"
           style="fill:#e1e1e1;fill-opacity:1;fill-rule:nonzero;stroke:none"
           id="path648" />
      </g>
      <g
         id="g650"
         transform="translate(259.8208,690.5405)">
        <path
           d="m 0,0 c -4.689,-1.372 -8.124,-5.708 -8.124,-10.832 0,-5.214 3.558,-9.615 8.373,-10.899 C 0.087,-20.419 0,-19.122 0,-17.849 Z"
           style="fill:#e1e1e1;fill-opacity:1;fill-rule:nonzero;stroke:none"
           id="path652" />
      </g>
      <g
         id="g654"
         transform="translate(379.1592,662.1636)">
        <path
           d="m 0,0 c -3.764,-12.121 -13.726,-25.854 -29.78,-40.988 -8.14,-7.673 -18.585,-11.512 -29.033,-11.512 -10.449,0 -20.894,3.839 -29.038,11.512 -16.05,15.134 -26.016,28.867 -29.776,40.988 -9.033,0.739 -16.161,8.326 -16.161,17.545 0,4.471 1.681,8.559 4.436,11.666 -1.159,23.724 -1.783,39.577 5.72,54.188 0.423,0.818 0.87,1.633 1.333,2.427 5.384,9.259 15.409,15.237 26.424,15.857 8.519,10.417 20.896,16.628 34.191,17.102 15.134,0.538 30.038,-3.151 43.103,-10.67 C -7.377,101.663 0.894,93.35 6.005,83.399 13.505,68.795 12.88,52.943 11.722,29.223 14.592,26.001 16.157,21.909 16.157,17.545 16.157,8.322 9.033,0.739 0,0 m -58.843,167.836 c -74.558,0 -135,-60.441 -135,-135 0,-74.558 60.442,-135 135,-135 74.559,0 135,60.442 135,135 0,74.559 -60.441,135 -135,135"
           style="fill:#e1e1e1;fill-opacity:1;fill-rule:nonzero;stroke:none"
           id="path656" />
      </g>
      <g
         id="g658"
         transform="translate(380.8711,686.6426)">
        <path
           d="m 0,0 v -13.951 c 0,-1.273 -0.087,-2.57 -0.249,-3.882 4.815,1.284 8.369,5.685 8.369,10.899 0,2.684 -0.925,5.21 -2.629,7.238 z"
           style="fill:#e1e1e1;fill-opacity:1;fill-rule:nonzero;stroke:none"
           id="path660" />
      </g>
      <g
         id="g662"
         transform="translate(379.5347,742.6729)">
        <path
           d="m 0,0 c -4.542,8.847 -11.982,16.292 -22.111,22.123 -12.037,6.93 -25.775,10.33 -39.722,9.832 -11.445,-0.408 -22.111,-5.757 -29.472,-14.73 l 7.61,-38.644 c 7.816,-7.891 34.121,-30.018 81.731,-28.456 L 5.1,-49.488 C 6.234,-25.685 6.317,-12.295 0,0"
           style="fill:#e1e1e1;fill-opacity:1;fill-rule:nonzero;stroke:none"
           id="path664" />
      </g>
    </g>
  </g>
</svg>
