<?xml version="1.0" encoding="UTF-8" standalone="no"?>
<svg
   xmlns:dc="http://purl.org/dc/elements/1.1/"
   xmlns:cc="http://creativecommons.org/ns#"
   xmlns:rdf="http://www.w3.org/1999/02/22-rdf-syntax-ns#"
   xmlns:svg="http://www.w3.org/2000/svg"
   xmlns="http://www.w3.org/2000/svg"
   xmlns:sodipodi="http://sodipodi.sourceforge.net/DTD/sodipodi-0.dtd"
   xmlns:inkscape="http://www.inkscape.org/namespaces/inkscape"
   width="110.77222mm"
   height="111.34263mm"
   viewBox="0 0 110.77222 111.34263"
   version="1.1"
   id="svg8"
   inkscape:version="1.0.1 (3bc2e813f5, 2020-09-07)"
   sodipodi:docname="p1male.svg">
  <defs
     id="defs2" />
  <sodipodi:namedview
     id="base"
     pagecolor="#ffffff"
     bordercolor="#666666"
     borderopacity="1.0"
     inkscape:pageopacity="0.0"
     inkscape:pageshadow="2"
     inkscape:zoom="0.7"
     inkscape:cx="324.07398"
     inkscape:cy="306.96756"
     inkscape:document-units="mm"
     inkscape:current-layer="layer1"
     inkscape:document-rotation="0"
     showgrid="false"
     inkscape:window-width="958"
     inkscape:window-height="1008"
     inkscape:window-x="2873"
     inkscape:window-y="0"
     inkscape:window-maximized="0" />
  <metadata
     id="metadata5">
    <rdf:RDF>
      <cc:Work
         rdf:about="">
        <dc:format>image/svg+xml</dc:format>
        <dc:type
           rdf:resource="http://purl.org/dc/dcmitype/StillImage" />
        <dc:title></dc:title>
      </cc:Work>
    </rdf:RDF>
  </metadata>
  <g
     inkscape:label="Layer 1"
     inkscape:groupmode="layer"
     id="layer1"
     transform="translate(-14.728473,-65.848028)">
    <path
       d="m 70.114583,65.848028 c -30.589008,0 -55.38611,24.797102 -55.38611,55.386112 0,30.58866 24.797102,55.38611 55.38611,55.38611 30.589017,0 55.386117,-24.79745 55.386117,-55.38611 0,-30.58901 -24.7971,-55.386112 -55.386117,-55.386112"
       style="fill:#509393;fill-opacity:1;fill-rule:nonzero;stroke:none;stroke-width:0.352777"
       id="path908" />
    <path
       d="M 72.839521,169.82305 C 57.504927,169.78805 44.037905,163.45041 33.835076,151.37024 18.40098,133.09664 20.753861,107.50671 35.250705,90.459552 L 29.334157,83.851149 C 10.29999,103.72773 9.0763843,134.76713 27.3764,156.4341 c 11.560814,14.21307 28.458758,20.61262 45.395102,20.13343 z"
       style="fill:#3a3a3a;fill-opacity:1;fill-rule:nonzero;stroke:none;stroke-width:0.370342"
       id="path1400"
       sodipodi:nodetypes="ccccccc" />
    <path
       d="m 73.736941,140.30428 c 0.567618,-0.2413 1.221665,0.0222 1.464375,0.58844 0.24095,0.56762 -0.024,1.22308 -0.58984,1.46438 -0.813152,0.34572 -1.659819,0.51047 -2.492375,0.51047 -2.483554,0 -4.850342,-1.45733 -5.882569,-3.88267 -0.24271,-0.56762 0.02222,-1.22308 0.588434,-1.46438 0.567618,-0.2413 1.223433,0.0222 1.464381,0.58984 0.89676,2.10608 3.340098,3.09069 5.447594,2.19392 M 63.957589,129.867 c -0.217313,0.21731 -0.503415,0.32597 -0.789165,0.32597 -0.284692,0 -0.570442,-0.10866 -0.788106,-0.32597 -0.801863,-0.80222 -2.104671,-0.80222 -2.906536,0 -0.434975,0.43498 -1.141941,0.43498 -1.577268,0 -0.436388,-0.43674 -0.436388,-1.14265 0,-1.57903 1.670754,-1.67076 4.390318,-1.67076 6.061075,0 0.436737,0.43638 0.436737,1.14229 0,1.57903 m 18.554347,-3.3528 c 1.15887,0 2.09761,0.9398 2.09761,2.09868 0,1.15922 -0.93874,2.09902 -2.09761,2.09902 -1.15888,0 -2.09903,-0.9398 -2.09903,-2.09902 0,-1.15888 0.94015,-2.09868 2.09903,-2.09868 M 62.316114,115.8201 c -2.023534,3.83116 -5.2451,6.06531 -9.78888,6.7945 v 7.90045 c 0,4.40726 3.598334,10.13072 10.408005,16.55057 4.885618,4.60481 12.539487,4.60481 17.424747,0 6.80861,-6.41985 10.40836,-12.14331 10.40836,-16.55057 v -4.83623 c -7.3025,0.0864 -14.00351,-1.31268 -19.933707,-4.16736 -3.990271,-1.91876 -6.801557,-4.11409 -8.518525,-5.69136"
       style="fill:#535353;fill-opacity:0.49596775;fill-rule:nonzero;stroke:none;stroke-width:0.352777"
       id="path1410" />
    <path
       d="m 60.810068,113.80323 -2.595385,-13.17907 c -2.942873,0.31079 -5.588354,1.96215 -7.034741,4.44853 -0.143582,0.24694 -0.283282,0.50094 -0.41275,0.75459 -2.1463,4.17583 -2.199217,8.70691 -1.843617,16.52234 0.433562,-0.19085 0.892527,-0.33337 1.372304,-0.4198 v -0.28998 c 0,-0.56904 0.427921,-1.0474 0.994481,-1.10879 4.712407,-0.5147 7.745587,-2.65535 9.519708,-6.72782"
       style="fill:#535353;fill-opacity:0.49596775;fill-rule:nonzero;stroke:none;stroke-width:0.352777"
       id="path1414" />
    <path
       d="m 50.29581,124.21846 c -1.654175,0.48402 -2.865967,2.01366 -2.865967,3.82129 0,1.83939 1.255184,3.39196 2.953809,3.84493 -0.05715,-0.46285 -0.08784,-0.9204 -0.08784,-1.36948 z"
       style="fill:#535353;fill-opacity:0.49596775;fill-rule:nonzero;stroke:none;stroke-width:0.352777"
       id="path1418" />
    <path
       d="m 92.395746,134.22921 c -1.32786,4.27601 -4.84223,9.12071 -10.50573,14.45965 -2.87161,2.70686 -6.55637,4.06118 -10.242191,4.06118 -3.686175,0 -7.37094,-1.35432 -10.243963,-4.06118 -5.662083,-5.33894 -9.177864,-10.18364 -10.50431,-14.45965 -3.186642,-0.26071 -5.701242,-2.93723 -5.701242,-6.18949 0,-1.57727 0.593022,-3.01942 1.564923,-4.11551 -0.408868,-8.3693 -0.629001,-13.96188 2.01789,-19.11632 0.149225,-0.28857 0.306917,-0.57608 0.470252,-0.85619 1.899357,-3.26637 5.435952,-5.375274 9.3218,-5.594004 3.005312,-3.67488 7.371644,-5.86599 12.061825,-6.0332 5.338936,-0.1898 10.596736,1.1116 15.205776,3.76414 3.95253,2.27612 6.87035,5.208764 8.6734,8.719254 2.64583,5.15197 2.42534,10.7442 2.01683,19.11209 1.01247,1.13665 1.56457,2.58022 1.56457,4.11974 0,3.25367 -2.51319,5.92878 -5.69983,6.18949 M 71.637242,75.020392 c -26.302407,0 -47.625,21.322244 -47.625,47.625008 0,26.3024 21.322593,47.62499 47.625,47.62499 26.302754,0 47.624998,-21.32259 47.624998,-47.62499 0,-26.302764 -21.322244,-47.625008 -47.624998,-47.625008"
       style="fill:#535353;fill-opacity:0.49596775;fill-rule:nonzero;stroke:none;stroke-width:0.352777"
       id="path1422" />
    <path
       d="m 92.999666,125.59356 v 4.9216 c 0,0.44909 -0.0307,0.90664 -0.0878,1.36948 1.69862,-0.45296 2.95239,-2.00554 2.95239,-3.84492 0,-0.94686 -0.32632,-1.83797 -0.92745,-2.55341 z"
       style="fill:#535353;fill-opacity:0.49596775;fill-rule:nonzero;stroke:none;stroke-width:0.352777"
       id="path1426" />
    <path
       d="m 92.528216,105.82731 c -1.60232,-3.12102 -4.22699,-5.74745 -7.80027,-7.804504 -4.24639,-2.44475 -9.09285,-3.6442 -14.013042,-3.46851 -4.037541,0.14393 -7.800268,2.03094 -10.397066,5.19641 l 2.684639,13.632754 c 2.757311,2.78377 12.037129,10.58968 28.832879,10.03864 l 2.49202,-0.13652 c 0.40005,-8.39717 0.42933,-13.12087 -1.79916,-17.45827"
       style="fill:#535353;fill-opacity:0.49596775;fill-rule:nonzero;stroke:none;stroke-width:0.352777"
       id="path1430" />
    <path
       d="m 73.031384,139.59873 c 0.567619,-0.2413 1.221669,0.0222 1.464379,0.58843 0.240953,0.56762 -0.024,1.22308 -0.589843,1.46438 -0.813152,0.34572 -1.659819,0.51047 -2.492375,0.51047 -2.483554,0 -4.850342,-1.45732 -5.882569,-3.88267 -0.24271,-0.56762 0.02222,-1.22308 0.588433,-1.46438 0.567619,-0.2413 1.223434,0.0222 1.464382,0.58984 0.89676,2.10609 3.340097,3.09069 5.447593,2.19393 m -9.779352,-10.43728 c -0.217312,0.21731 -0.503414,0.32596 -0.789164,0.32596 -0.284692,0 -0.570442,-0.10865 -0.788107,-0.32596 -0.801862,-0.80222 -2.10467,-0.80222 -2.906535,0 -0.434975,0.43497 -1.141942,0.43497 -1.577269,0 -0.436387,-0.43674 -0.436387,-1.14265 0,-1.57904 1.670754,-1.67075 4.390319,-1.67075 6.061075,0 0.436738,0.43639 0.436738,1.1423 0,1.57904 m 18.554344,-3.3528 c 1.15888,0 2.09762,0.9398 2.09762,2.09867 0,1.15923 -0.93874,2.09903 -2.09762,2.09903 -1.15887,0 -2.09903,-0.9398 -2.09903,-2.09903 0,-1.15887 0.94016,-2.09867 2.09903,-2.09867 M 61.610557,115.11454 c -2.023533,3.83117 -5.2451,6.06531 -9.788879,6.7945 v 7.90046 c 0,4.40725 3.598333,10.13072 10.408004,16.55057 4.885619,4.60481 12.539484,4.60481 17.424754,0 6.80861,-6.41985 10.40835,-12.14332 10.40835,-16.55057 v -4.83623 c -7.3025,0.0864 -14.00351,-1.31269 -19.933704,-4.16737 -3.990271,-1.91875 -6.801556,-4.11409 -8.518525,-5.69136"
       style="fill:#e1e1e1;fill-opacity:1;fill-rule:nonzero;stroke:none;stroke-width:0.352777"
       id="path1440" />
    <path
       d="M 60.104512,113.09768 57.509127,99.918596 c -2.942873,0.310804 -5.588355,1.962154 -7.034742,4.448534 -0.143581,0.24695 -0.283281,0.50095 -0.41275,0.75459 -2.1463,4.17583 -2.199217,8.70691 -1.843617,16.52235 0.433563,-0.19085 0.892527,-0.33338 1.372304,-0.4198 v -0.28999 c 0,-0.56903 0.427921,-1.0474 0.994482,-1.10878 4.712406,-0.5147 7.745587,-2.65536 9.519708,-6.72782"
       style="fill:#e1e1e1;fill-opacity:1;fill-rule:nonzero;stroke:none;stroke-width:0.352777"
       id="path1444" />
    <path
       d="m 49.590253,123.51291 c -1.654175,0.48401 -2.865966,2.01365 -2.865966,3.82129 0,1.83938 1.255183,3.39196 2.953808,3.84492 -0.05715,-0.46284 -0.08784,-0.92039 -0.08784,-1.36948 z"
       style="fill:#e1e1e1;fill-opacity:1;fill-rule:nonzero;stroke:none;stroke-width:0.352777"
       id="path1448" />
    <path
       d="m 91.690186,133.52365 c -1.32786,4.27602 -4.84223,9.12072 -10.50572,14.45966 -2.87161,2.70686 -6.556377,4.06117 -10.242197,4.06117 -3.686175,0 -7.37094,-1.35431 -10.243963,-4.06117 -5.662084,-5.33894 -9.177864,-10.18364 -10.50431,-14.45966 -3.186642,-0.2607 -5.701242,-2.93723 -5.701242,-6.18949 0,-1.57727 0.593021,-3.01942 1.564923,-4.1155 -0.408869,-8.3693 -0.629002,-13.96189 2.01789,-19.11632 0.149225,-0.28858 0.306916,-0.57609 0.470252,-0.85619 1.899356,-3.266384 5.435952,-5.375284 9.3218,-5.594004 3.005312,-3.67489 7.371643,-5.86599 12.061825,-6.03321 5.338932,-0.18979 10.596732,1.11161 15.205782,3.76414 3.95252,2.27612 6.87034,5.208774 8.67339,8.719264 2.64583,5.15196 2.42535,10.7442 2.01683,19.11208 1.01247,1.13665 1.56457,2.58022 1.56457,4.11974 0,3.25367 -2.51319,5.92879 -5.69983,6.18949 M 70.931685,74.314835 c -26.302406,0 -47.624999,21.322241 -47.624999,47.625005 0,26.3024 21.322593,47.625 47.624999,47.625 26.302761,0 47.625005,-21.3226 47.625005,-47.625 0,-26.302764 -21.322244,-47.625005 -47.625005,-47.625005"
       style="fill:#e1e1e1;fill-opacity:1;fill-rule:nonzero;stroke:none;stroke-width:0.352777"
       id="path1452" />
    <path
       d="m 92.294106,124.888 v 4.9216 c 0,0.44909 -0.0307,0.90664 -0.0878,1.36949 1.69863,-0.45297 2.9524,-2.00555 2.9524,-3.84493 0,-0.94685 -0.32632,-1.83797 -0.92745,-2.5534 z"
       style="fill:#e1e1e1;fill-opacity:1;fill-rule:nonzero;stroke:none;stroke-width:0.352777"
       id="path1456" />
    <path
       d="m 91.822656,105.12176 c -1.60232,-3.12103 -4.22698,-5.747464 -7.80027,-7.804504 -4.24639,-2.44475 -9.09285,-3.6442 -14.013038,-3.46852 -4.037542,0.14394 -7.800269,2.03094 -10.397067,5.19642 l 2.68464,13.632754 c 2.75731,2.78376 12.037129,10.58968 28.832875,10.03864 l 2.49203,-0.13653 c 0.40005,-8.39716 0.42933,-13.12086 -1.79917,-17.45826"
       style="fill:#e1e1e1;fill-opacity:1;fill-rule:nonzero;stroke:none;stroke-width:0.352777"
       id="path1460" />
  </g>
</svg>
