<?xml version="1.0" encoding="UTF-8" standalone="no"?>
<svg
   xmlns:dc="http://purl.org/dc/elements/1.1/"
   xmlns:cc="http://creativecommons.org/ns#"
   xmlns:rdf="http://www.w3.org/1999/02/22-rdf-syntax-ns#"
   xmlns:svg="http://www.w3.org/2000/svg"
   xmlns="http://www.w3.org/2000/svg"
   xmlns:sodipodi="http://sodipodi.sourceforge.net/DTD/sodipodi-0.dtd"
   xmlns:inkscape="http://www.inkscape.org/namespaces/inkscape"
   width="111.02366mm"
   height="110.77222mm"
   viewBox="0 0 111.02366 110.77223"
   version="1.1"
   id="svg1993"
   inkscape:version="1.0.1 (3bc2e813f5, 2020-09-07)"
   sodipodi:docname="p2female.svg">
  <defs
     id="defs1987" />
  <sodipodi:namedview
     id="base"
     pagecolor="#ffffff"
     bordercolor="#666666"
     borderopacity="1.0"
     inkscape:pageopacity="0.0"
     inkscape:pageshadow="2"
     inkscape:zoom="7.9195959"
     inkscape:cx="164.10639"
     inkscape:cy="302.87824"
     inkscape:document-units="mm"
     inkscape:current-layer="layer1"
     inkscape:document-rotation="0"
     showgrid="false"
     inkscape:window-width="958"
     inkscape:window-height="1008"
     inkscape:window-x="2873"
     inkscape:window-y="0"
     inkscape:window-maximized="0"
     inkscape:snap-midpoints="true" />
  <metadata
     id="metadata1990">
    <rdf:RDF>
      <cc:Work
         rdf:about="">
        <dc:format>image/svg+xml</dc:format>
        <dc:type
           rdf:resource="http://purl.org/dc/dcmitype/StillImage" />
        <dc:title></dc:title>
      </cc:Work>
    </rdf:RDF>
  </metadata>
  <g
     inkscape:label="Layer 1"
     inkscape:groupmode="layer"
     id="layer1"
     transform="translate(-42.922503,-79.278994)">
    <path
       d="m 98.560055,79.278994 c -30.589003,0 -55.386105,24.797106 -55.386105,55.386116 0,30.58866 24.797102,55.38611 55.386105,55.38611 30.589005,0 55.386105,-24.79745 55.386105,-55.38611 0,-30.58901 -24.7971,-55.386116 -55.386105,-55.386116"
       style="fill:#a86047;fill-opacity:1;fill-rule:nonzero;stroke:none;stroke-width:0.352777"
       id="path1464" />
    <path
       d="M 98.075028,182.21661 C 85.071346,182.12639 72.154887,176.74689 62.825659,166.27037 45.333257,146.62747 47.076993,116.52308 66.720516,99.031158 86.363347,81.539105 116.46704,83.282724 133.95938,102.92596 l 5.71289,-5.087315 C 119.32958,74.994663 84.319778,72.966605 61.475445,93.309243 38.631464,113.65193 36.603409,148.66173 56.946042,171.50606 c 10.924355,12.26792 26.078023,18.52313 41.306109,18.54273 z"
       style="fill:#3a3a3a;fill-opacity:1;fill-rule:nonzero;stroke:none;stroke-width:0.352777"
       id="path1600" />
    <g
       id="g1985"
       transform="matrix(0.35277777,0,0,-0.35277777,-396.38065,278.35292)">
      <g
         id="g1937"
         transform="translate(356.56562,-22.055606)">
        <path
           d="m 1020.6702,395.40108 c 0,-0.918 0.101,-1.825 0.291,-2.708 2.133,0.837 4.673,1.175 7.551,1.253 v 6.921 c -3.053,-0.101 -5.485,-0.533 -6.683,-1.669 -0.284,-0.273 -1.159,-1.105 -1.159,-3.797"
           style="fill:#535353;fill-opacity:0.49411765;fill-rule:nonzero;stroke:none;stroke-width:0.999998"
           id="path1474" />
        <path
           d="m 1028.5119,382.45428 v 5.259 c -1.9249,-0.062 -3.6019,-0.256 -4.882,-0.68 1.2801,-1.697 2.9301,-3.245 4.882,-4.579"
           style="fill:#535353;fill-opacity:0.49411765;fill-rule:nonzero;stroke:none;stroke-width:0.999998"
           id="path1478" />
        <path
           d="m 1034.7366,387.61638 v -8.337 c 2.883,-1.066 6.085,-1.774 9.477,-2.046 v 9.971 c -2.412,0.062 -4.735,0.179 -6.858,0.284 -0.884,0.043 -1.759,0.089 -2.619,0.128"
           style="fill:#535353;fill-opacity:0.49411765;fill-rule:nonzero;stroke:none;stroke-width:0.999998"
           id="path1482" />
        <path
           d="m 992.55102,401.22478 c -0.87499,0.12099 -1.731,0.311 -2.55699,0.564 0.705,-21.48601 -0.256,-37.234 -5.807,-46.70701 18.76597,-5.637 35.80897,-0.50199 44.81497,3.37301 -18.723,6.55099 -32.91098,22.84 -36.45098,42.77"
           style="fill:#535353;fill-opacity:0.49411765;fill-rule:nonzero;stroke:none;stroke-width:0.999998"
           id="path1486" />
        <path
           d="m 1102.9572,426.56218 v -0.14001 -15.441 c 0,-1.08499 -0.035,-2.163 -0.098,-3.23199 4.109,1.287 7.1,5.127 7.1,9.65499 0,4.49301 -2.944,8.30601 -7.002,9.62501 z"
           style="fill:#535353;fill-opacity:0.49411765;fill-rule:nonzero;stroke:none;stroke-width:0.999998"
           id="path1490" />
        <path
           d="m 991.69452,433.44408 v 0.572 c 0,1.587 1.194,2.922 2.77401,3.093 12.44597,1.357 20.34597,7.111 24.86697,18.113 0.401,0.972 1.268,1.677 2.299,1.875 1.039,0.195 2.101,-0.144 2.829,-0.906 6.123,-6.392 28.912,-26.661 70.892,-26.661 0.455,0 0.918,0.004 1.377,0.008 v 7.069 c 0,1.719 1.393,3.112 3.112,3.112 1.72,0 3.113,-1.393 3.113,-3.112 v -3.163 c 1.089,-0.21 2.139,-0.529 3.138,-0.945 0.904,20.054 0.741,31.725 -4.768,42.454 -4.144,8.065 -10.929,14.84607 -20.163,20.16407 -10.987,6.326 -23.526,9.43 -36.25,8.974 -10.831,-0.384 -20.895,-5.632 -27.61,-14.393 -0.58,-0.751 -1.466,-1.202 -2.412,-1.218 -8.558,-0.098 -16.40097,-4.53607 -20.49798,-11.58107 -0.37299,-0.639 -0.73099,-1.296 -1.06599,-1.946 -5.51601,-10.733 -5.68,-22.404 -4.77801,-42.454 1.00401,0.416 2.055,0.735 3.144,0.945"
           style="fill:#535353;fill-opacity:0.49411765;fill-rule:nonzero;stroke:none;stroke-width:0.999998"
           id="path1494" />
        <path
           d="m 1034.7366,400.76588 v -6.921 c 0.953,-0.039 1.93,-0.089 2.93,-0.14 2.128,-0.105 4.306,-0.214 6.547,-0.272 v 6.924 c -2.408,0.063 -4.735,0.18 -6.854,0.284 -0.884,0.043 -1.759,0.09 -2.623,0.125"
           style="fill:#535353;fill-opacity:0.49411765;fill-rule:nonzero;stroke:none;stroke-width:0.999998"
           id="path1498" />
        <path
           d="m 991.79225,407.74878 c -0.062,1.07 -0.098,2.147 -0.098,3.233 v 16.047 c -4.05701,-1.319 -7.002,-5.131 -7.002,-9.624 0,-4.529 2.992,-8.368 7.09999,-9.656"
           style="fill:#535353;fill-opacity:0.49411765;fill-rule:nonzero;stroke:none;stroke-width:0.999998"
           id="path1502" />
        <path
           d="m 1050.4377,400.35718 v -6.925 c 2.241,0.059 4.4201,0.168 6.5441,0.273 1.0039,0.05 1.98,0.10099 2.934,0.13999 v 6.92501 c -0.8651,-0.039 -1.74,-0.086 -2.6231,-0.129 -2.121,-0.105 -4.443,-0.222 -6.855,-0.284"
           style="fill:#535353;fill-opacity:0.49411765;fill-rule:nonzero;stroke:none;stroke-width:0.999998"
           id="path1506" />
        <path
           d="m 1070.1936,377.73897 c -6.147,-4.42299 -14.27,-6.858 -22.867,-6.858 -8.598,0 -16.721,2.43501 -22.867,6.858 -6.458,4.641 -10.014,10.91701 -10.014,17.662 0,3.56001 1.042,6.35301 3.097,8.30601 4.154,3.95199 11.204,3.59799 20.128,3.15099 3.096,-0.156 6.298,-0.315 9.656,-0.315 3.361,0 6.558,0.159 9.655,0.315 8.925,0.447 15.974,0.801 20.128,-3.15099 2.055,-1.953 3.098,-4.746 3.098,-8.30601 0,-6.74499 -3.557,-13.021 -10.014,-17.662 m -58.005,36.01701 c -1.214,-1.214 -3.183,-1.214 -4.399,0 -1.214,1.21699 -1.214,3.186 0,4.40299 5.325,5.32601 13.993,5.32601 19.322,0 1.215,-1.21699 1.215,-3.186 0,-4.40299 -0.61,-0.60701 -1.404,-0.911 -2.201,-0.911 -0.798,0 -1.596,0.30399 -2.202,0.911 -2.899,2.898 -7.618,2.898 -10.52,0 m 55.355,4.40299 c 2.58,2.58 6.011,3.999 9.66,3.999 3.649,0 7.08,-1.419 9.66,-4.002 1.217,-1.21399 1.217,-3.183 0,-4.39999 -0.608,-0.60701 -1.405,-0.911 -2.202,-0.911 -0.794,0 -1.591,0.30399 -2.198,0.911 -1.405,1.404 -3.272,2.178 -5.26,2.178 -1.989,0 -3.856,-0.774 -5.26,-2.178 -1.214,-1.214 -3.186,-1.214 -4.4,0 -1.217,1.21699 -1.217,3.186 0,4.40299 m 29.189,-7.17699 v 12.332 c -18.898,-0.20201 -36.25,3.44299 -51.612,10.83799 -10.216,4.918 -17.468,10.527 -21.949,14.616 -5.268,-9.803 -13.582,-15.54999 -25.25202,-17.47099 v -20.315 c 0,-27.244 22.16302,-49.40701 49.40702,-49.40701 27.243,0 49.406,22.16301 49.406,49.40701"
           style="fill:#535353;fill-opacity:0.49411765;fill-rule:nonzero;stroke:none;stroke-width:0.999998"
           id="path1510" />
        <path
           d="m 1118.4709,352.75167 c -0.244,-0.99999 -0.964,-1.812 -1.925,-2.178 -5.769,-2.17899 -13.749,-4.214 -23.428,-4.214 -5.807,0 -12.231,0.732 -19.155,2.607 -9.025,2.439 -15.39,5.86301 -17.56,7.127 -2.953,-0.48699 -5.989,-0.743 -9.077,-0.743 -3.093,0 -6.124,0.25601 -9.076,0.743 -2.175,-1.26399 -8.539,-4.688 -17.56,-7.127 -5.195,-1.404 -11.812,-2.60299 -19.262,-2.60299 -7.17397,0 -15.11697,1.10899 -23.32597,4.20999 -0.961,0.366 -1.68,1.17801 -1.922,2.178 -0.244,1 0.023,2.058 0.713,2.821 7.29,8.072 7.601,28.644 6.737,49.93101 -3.175,2.97999 -5.162,7.21299 -5.162,11.901 0,4.116 1.532,7.88199 4.058,10.75699 -1.063,21.707 -1.623,36.22601 5.267,49.63601 0.381,0.74599 0.793,1.497 1.221,2.23299 4.953,8.51198 14.15697,14.01598 24.27097,14.61898 7.836,9.539 19.2,15.227 31.407,15.663 13.892,0.498 27.579,-2.894 39.576,-9.8 10.294,-5.925 17.895,-13.569 22.596,-22.71497 6.884,-13.40601 6.321,-27.92501 5.262,-49.632 2.522,-2.87901 4.058,-6.642 4.058,-10.761 0,-4.68801 -1.988,-8.92101 -5.166,-11.904 -0.86,-21.28401 -0.553,-41.85601 6.738,-49.92801 0.689,-0.763 0.957,-1.821 0.715,-2.821 m -71.055,210.60798 c -74.55797,0 -134.99997,-60.441 -134.99997,-134.99998 0,-74.558 60.442,-134.99999 134.99997,-134.99999 74.559,0 135,60.44199 135,134.99999 0,74.55898 -60.441,134.99998 -135,134.99998"
           style="fill:#535353;fill-opacity:0.49411765;fill-rule:nonzero;stroke:none;stroke-width:0.999998"
           id="path1514" />
        <path
           d="m 1050.4377,387.20428 v -9.97101 c 3.393,0.272 6.5951,0.98 9.4781,2.046 v 8.337 c -0.861,-0.038 -1.74,-0.085 -2.619,-0.12799 -2.1251,-0.105 -4.4471,-0.222 -6.8591,-0.284"
           style="fill:#535353;fill-opacity:0.49411765;fill-rule:nonzero;stroke:none;stroke-width:0.999998"
           id="path1518" />
        <path
           d="m 1104.6535,401.78878 c -0.825,-0.253 -1.677,-0.44301 -2.552,-0.564 -3.541,-19.93401 -17.736,-36.22701 -36.465,-42.77401 2.72,-1.17499 6.163,-2.466 10.155,-3.53199 12.037,-3.217 23.679,-3.159 34.67,0.15999 -5.551,9.472 -6.512,25.22001 -5.808,46.71001"
           style="fill:#535353;fill-opacity:0.49411765;fill-rule:nonzero;stroke:none;stroke-width:0.999998"
           id="path1522" />
        <path
           d="m 1072.8225,399.19798 c -1.197,1.136 -3.625,1.568 -6.684,1.66899 v -6.921 c 2.879,-0.081 5.42,-0.41599 7.5521,-1.25199 0.1909,0.882 0.2919,1.78899 0.2919,2.70699 0,2.69201 -0.872,3.525 -1.16,3.79701"
           style="fill:#535353;fill-opacity:0.49411765;fill-rule:nonzero;stroke:none;stroke-width:0.999998"
           id="path1526" />
        <path
           d="m 1066.1389,382.45428 c 1.953,1.338 3.604,2.882 4.883,4.583 -1.279,0.42 -2.957,0.614 -4.883,0.676 z"
           style="fill:#535353;fill-opacity:0.49411765;fill-rule:nonzero;stroke:none;stroke-width:0.999998"
           id="path1530" />
        <path
           d="m 1018.6701,397.40107 c 0,-0.918 0.101,-1.82499 0.291,-2.708 2.133,0.837 4.673,1.175 7.551,1.253 v 6.921 c -3.0529,-0.101 -5.485,-0.533 -6.6829,-1.66899 -0.2841,-0.273 -1.1591,-1.10501 -1.1591,-3.79701"
           style="fill:#e1e1e1;fill-opacity:1;fill-rule:nonzero;stroke:none;stroke-width:0.999998"
           id="path1540" />
        <path
           d="m 1026.5119,384.45428 v 5.259 c -1.925,-0.062 -3.602,-0.256 -4.882,-0.68 1.28,-1.697 2.93,-3.245 4.882,-4.579"
           style="fill:#e1e1e1;fill-opacity:1;fill-rule:nonzero;stroke:none;stroke-width:0.999998"
           id="path1544" />
        <path
           d="m 1032.7365,389.61637 v -8.337 c 2.883,-1.066 6.0851,-1.774 9.477,-2.046 v 9.97101 c -2.412,0.062 -4.735,0.17899 -6.858,0.28399 -0.8839,0.043 -1.759,0.089 -2.619,0.128"
           style="fill:#e1e1e1;fill-opacity:1;fill-rule:nonzero;stroke:none;stroke-width:0.999998"
           id="path1548" />
        <path
           d="m 990.55107,403.22478 c -0.87499,0.121 -1.731,0.311 -2.55699,0.564 0.705,-21.486 -0.256,-37.234 -5.807,-46.707 18.76602,-5.637 35.80902,-0.502 44.81502,3.373 -18.723,6.551 -32.91103,22.84 -36.45103,42.77"
           style="fill:#e1e1e1;fill-opacity:1;fill-rule:nonzero;stroke:none;stroke-width:0.999998"
           id="path1552" />
        <path
           d="m 1100.9572,428.56218 v -0.14 -15.441 c 0,-1.085 -0.035,-2.163 -0.098,-3.232 4.109,1.287 7.1,5.127 7.1,9.655 0,4.493 -2.944,8.306 -7.002,9.625 z"
           style="fill:#e1e1e1;fill-opacity:1;fill-rule:nonzero;stroke:none;stroke-width:0.999998"
           id="path1556" />
        <path
           d="m 989.69457,435.44407 v 0.57201 c 0,1.587 1.194,2.922 2.77401,3.093 12.44602,1.35699 20.34602,7.11099 24.86702,18.11299 0.401,0.972 1.268,1.677 2.299,1.875 1.039,0.195 2.101,-0.144 2.829,-0.906 6.123,-6.39199 28.912,-26.661 70.892,-26.661 0.455,0 0.918,0.004 1.377,0.008 v 7.06899 c 0,1.719 1.393,3.11201 3.112,3.11201 1.72,0 3.113,-1.39301 3.113,-3.11201 v -3.16299 c 1.089,-0.21 2.139,-0.529 3.138,-0.945 0.904,20.054 0.741,31.725 -4.768,42.45399 -4.144,8.06501 -10.929,14.84599 -20.163,20.16399 -10.987,6.326 -23.526,9.43 -36.25,8.974 -10.831,-0.384 -20.895,-5.632 -27.61,-14.393 -0.58,-0.751 -1.466,-1.202 -2.412,-1.218 -8.558,-0.098 -16.40102,-4.536 -20.49803,-11.58098 -0.37299,-0.639 -0.73099,-1.296 -1.06599,-1.94601 -5.51601,-10.73299 -5.68,-22.404 -4.77801,-42.45399 1.00401,0.416 2.055,0.735 3.144,0.945"
           style="fill:#e1e1e1;fill-opacity:1;fill-rule:nonzero;stroke:none;stroke-width:0.999998"
           id="path1560" />
        <path
           d="m 1032.7365,402.76588 v -6.921 c 0.953,-0.039 1.9301,-0.089 2.93,-0.14001 2.128,-0.105 4.306,-0.21399 6.547,-0.27199 v 6.924 c -2.4079,0.063 -4.735,0.18 -6.8539,0.28399 -0.8841,0.043 -1.7591,0.09 -2.6231,0.12501"
           style="fill:#e1e1e1;fill-opacity:1;fill-rule:nonzero;stroke:none;stroke-width:0.999998"
           id="path1564" />
        <path
           d="m 1048.4377,402.35718 v -6.925 c 2.241,0.059 4.42,0.168 6.544,0.273 1.004,0.05 1.98,0.101 2.934,0.14 v 6.925 c -0.865,-0.039 -1.74,-0.086 -2.623,-0.129 -2.121,-0.105 -4.443,-0.222 -6.855,-0.284"
           style="fill:#e1e1e1;fill-opacity:1;fill-rule:nonzero;stroke:none;stroke-width:0.999998"
           id="path1572" />
        <path
           d="m 1068.1935,379.73898 c -6.147,-4.423 -14.2699,-6.858 -22.867,-6.858 -8.598,0 -16.721,2.435 -22.8669,6.858 -6.4581,4.641 -10.014,10.917 -10.014,17.662 0,3.56 1.0419,6.353 3.0969,8.306 4.1541,3.952 11.2041,3.598 20.128,3.151 3.096,-0.156 6.2981,-0.315 9.656,-0.315 3.361,0 6.558,0.159 9.655,0.315 8.925,0.447 15.974,0.801 20.1281,-3.151 2.055,-1.953 3.0979,-4.746 3.0979,-8.306 0,-6.745 -3.5569,-13.021 -10.014,-17.662 m -58.0049,36.017 c -1.214,-1.214 -3.183,-1.214 -4.399,0 -1.214,1.217 -1.214,3.186 0,4.403 5.3249,5.326 13.9929,5.326 19.322,0 1.215,-1.217 1.215,-3.186 0,-4.403 -0.6101,-0.607 -1.404,-0.911 -2.2011,-0.911 -0.798,0 -1.596,0.304 -2.202,0.911 -2.8989,2.898 -7.6179,2.898 -10.5199,0 m 55.3549,4.403 c 2.58,2.58 6.0111,3.999 9.66,3.999 3.649,0 7.08,-1.419 9.66,-4.002 1.2171,-1.214 1.2171,-3.183 0,-4.4 -0.608,-0.607 -1.4049,-0.911 -2.202,-0.911 -0.794,0 -1.5909,0.304 -2.198,0.911 -1.405,1.404 -3.2719,2.178 -5.26,2.178 -1.989,0 -3.8559,-0.774 -5.2599,-2.178 -1.2141,-1.214 -3.186,-1.214 -4.4001,0 -1.217,1.217 -1.217,3.186 0,4.403 m 29.1891,-7.177 v 12.332 c -18.8981,-0.202 -36.2501,3.443 -51.612,10.838 -10.2161,4.91799 -17.4681,10.527 -21.9491,14.616 -5.268,-9.80301 -13.5819,-15.55 -25.25195,-17.471 v -20.315 c 0,-27.244 22.16305,-49.407 49.40695,-49.407 27.243,0 49.4061,22.163 49.4061,49.407"
           style="fill:#e1e1e1;fill-opacity:1;fill-rule:nonzero;stroke:none;stroke-width:0.999998"
           id="path1576" />
        <path
           d="m 1116.471,354.75168 c -0.244,-1 -0.964,-1.812 -1.925,-2.178 -5.769,-2.179 -13.749,-4.21401 -23.428,-4.21401 -5.807,0 -12.231,0.732 -19.155,2.607 -9.025,2.439 -15.39,5.86301 -17.56,7.12701 -2.953,-0.487 -5.989,-0.74301 -9.077,-0.74301 -3.093,0 -6.124,0.25601 -9.076,0.74301 -2.175,-1.264 -8.539,-4.68801 -17.56,-7.12701 -5.195,-1.404 -11.812,-2.60299 -19.26202,-2.60299 -7.174,0 -15.117,1.10899 -23.326,4.21 -0.961,0.366 -1.68,1.178 -1.922,2.178 -0.244,0.99999 0.023,2.058 0.713,2.82099 7.29,8.07201 7.601,28.64401 6.737,49.93101 -3.175,2.98 -5.162,7.213 -5.162,11.901 0,4.116 1.532,7.882 4.058,10.75699 -1.063,21.70701 -1.623,36.22601 5.267,49.63601 0.381,0.74599 0.793,1.497 1.221,2.233 4.953,8.51197 14.15702,14.01597 24.27102,14.61897 7.836,9.539 19.2,15.227 31.407,15.663 13.892,0.498 27.579,-2.894 39.576,-9.8 10.294,-5.925 17.895,-13.569 22.596,-22.71497 6.884,-13.406 6.321,-27.92501 5.262,-49.632 2.522,-2.879 4.058,-6.642 4.058,-10.761 0,-4.688 -1.988,-8.921 -5.166,-11.904 -0.86,-21.284 -0.553,-41.856 6.738,-49.92801 0.689,-0.76299 0.957,-1.821 0.715,-2.82099 m -71.055,210.60797 c -74.55802,0 -135.00002,-60.441 -135.00002,-134.99998 0,-74.55799 60.442,-134.99999 135.00002,-134.99999 74.559,0 135,60.442 135,134.99999 0,74.55898 -60.441,134.99998 -135,134.99998"
           style="fill:#e1e1e1;fill-opacity:1;fill-rule:nonzero;stroke:none;stroke-width:0.999998"
           id="path1580" />
        <path
           d="m 1048.4377,389.20428 v -9.97101 c 3.393,0.27201 6.595,0.98001 9.478,2.046 v 8.33701 c -0.861,-0.038 -1.74,-0.085 -2.619,-0.128 -2.125,-0.105 -4.447,-0.222 -6.859,-0.284"
           style="fill:#e1e1e1;fill-opacity:1;fill-rule:nonzero;stroke:none;stroke-width:0.999998"
           id="path1584" />
        <path
           d="m 1102.6536,403.78878 c -0.825,-0.253 -1.677,-0.443 -2.552,-0.564 -3.541,-19.93401 -17.736,-36.22701 -36.465,-42.774 2.72,-1.175 6.163,-2.466 10.155,-3.532 12.037,-3.217 23.679,-3.159 34.67,0.16 -5.551,9.47199 -6.512,25.22 -5.808,46.71"
           style="fill:#e1e1e1;fill-opacity:1;fill-rule:nonzero;stroke:none;stroke-width:0.999998"
           id="path1588" />
        <path
           d="m 1070.8225,401.19798 c -1.197,1.136 -3.625,1.568 -6.684,1.669 v -6.921 c 2.879,-0.081 5.42,-0.416 7.552,-1.252 0.191,0.882 0.292,1.789 0.292,2.707 0,2.692 -0.872,3.525 -1.16,3.797"
           style="fill:#e1e1e1;fill-opacity:1;fill-rule:nonzero;stroke:none;stroke-width:0.999998"
           id="path1592" />
        <path
           d="m 1064.139,384.45428 c 1.953,1.338 3.604,2.882 4.883,4.583 -1.279,0.42 -2.957,0.614 -4.883,0.676 z"
           style="fill:#e1e1e1;fill-opacity:1;fill-rule:nonzero;stroke:none;stroke-width:0.999998"
           id="path1596" />
      </g>
      <path
         d="m 1346.2937,387.83293 c -0.062,1.07 -0.098,2.147 -0.098,3.233 v 16.047 c -4.057,-1.319 -7.002,-5.131 -7.002,-9.624 0,-4.529 2.992,-8.368 7.1,-9.656"
         style="fill:#e1e1e1;fill-opacity:1;fill-rule:nonzero;stroke:none;stroke-width:0.999998"
         id="path1568" />
    </g>
  </g>
</svg>
